<svg version="1.1" id="Layer_1" xmlns="http://www.w3.org/2000/svg" xmlns:xlink="http://www.w3.org/1999/xlink" x="0px" y="0px"
	 width="100%" viewBox="0 0 3000 2000" enable-background="new 0 0 3000 2000" xml:space="preserve">
<path fill="#47704C" opacity="1.000000" stroke="none" 
	d="
M2090.000000,2002.000000 
	C1393.333374,2002.000000 697.666687,2002.000000 2.000000,2002.000000 
	C2.000000,1335.333374 2.000000,668.666687 2.000000,2.000000 
	C1002.000000,2.000000 2002.000000,2.000000 3002.000000,2.000000 
	C3002.000000,668.666687 3002.000000,1335.333374 3002.000000,2002.000000 
	C2698.333252,2002.000000 2394.666748,2002.000000 2090.000000,2002.000000 
M2302.143311,692.376953 
	C2292.192871,677.860413 2283.089600,662.662292 2272.088867,648.990845 
	C2256.482666,629.595520 2240.132080,610.694763 2222.861328,592.776489 
	C2209.539307,578.955200 2194.312256,566.970398 2179.179688,553.058289 
	C2148.571289,526.953430 2115.765869,503.898376 2081.136963,483.507538 
	C2065.772217,474.460083 2049.719482,466.580627 2032.697876,457.554688 
	C2009.625366,446.329376 1986.989258,434.064026 1963.366699,424.149170 
	C1935.524780,412.463287 1906.937622,402.504456 1878.452271,392.421844 
	C1865.977905,388.006470 1852.955200,385.140839 1839.017212,380.690033 
	C1781.965698,364.483429 1724.025879,352.642029 1665.124756,345.664246 
	C1642.368774,342.968414 1619.575439,340.504700 1596.748291,338.523010 
	C1583.205566,337.347321 1569.563232,337.317993 1554.279419,336.496399 
	C1550.863770,336.519958 1547.447998,336.543518 1542.487305,336.033234 
	C1540.322754,336.062988 1538.158203,336.092743 1534.137695,335.843445 
	C1487.070312,335.123871 1440.032715,335.644135 1393.137207,340.186279 
	C1374.052979,342.034668 1355.031982,344.534576 1334.355469,346.531097 
	C1312.792847,350.283691 1291.151978,353.640320 1269.687378,357.888397 
	C1242.409302,363.286987 1215.174683,368.986572 1188.113525,375.371155 
	C1170.969482,379.415985 1154.071533,384.611298 1137.242065,389.863922 
	C1038.606323,420.649200 946.238525,464.187958 862.722290,525.567688 
	C816.099121,559.833130 774.232178,599.109070 738.047119,644.355225 
	C718.302795,669.043762 701.035095,695.343323 686.708984,723.507507 
	C673.262756,749.942078 661.284912,777.002930 653.585571,807.360046 
	C652.974670,809.252380 652.241211,811.114807 651.771423,813.041504 
	C645.560486,838.513306 641.022949,864.170410 639.389221,890.464111 
	C638.107239,911.096558 638.329285,931.506897 640.468140,953.613098 
	C640.825500,956.559021 641.198364,959.503235 641.537964,962.451172 
	C647.654968,1015.547119 664.650574,1065.156738 689.946594,1112.010864 
	C695.907104,1123.050903 703.039917,1133.458008 709.984680,1145.514526 
	C712.262207,1149.189697 714.374329,1152.980225 716.843140,1156.522095 
	C740.155273,1189.967285 766.620605,1220.704102 796.257874,1248.704834 
	C812.663452,1264.204468 829.223877,1279.520874 848.663818,1293.446289 
	C854.416260,1297.940552 860.008606,1302.659424 865.947144,1306.892700 
	C904.668884,1334.495483 945.070312,1359.372192 987.859314,1380.161865 
	C1006.927551,1389.426392 1026.569336,1397.510498 1047.040649,1407.028564 
	C1050.383911,1408.504028 1053.684937,1410.085449 1057.076904,1411.438477 
	C1095.096069,1426.604126 1133.693970,1439.992188 1173.264771,1450.630493 
	C1219.886841,1463.164551 1266.904541,1473.632690 1314.735107,1480.348511 
	C1326.577637,1482.011353 1338.372803,1484.011230 1350.261230,1487.747803 
	C1350.283447,1542.676758 1350.303223,1597.605591 1350.333740,1652.534546 
	C1350.335571,1655.862549 1350.372559,1659.192261 1350.484619,1662.518066 
	C1350.631470,1666.877441 1352.905396,1669.262573 1357.297974,1669.493652 
	C1359.291382,1669.598511 1361.289795,1669.649780 1363.286011,1669.649780 
	C1453.169800,1669.649902 1543.053589,1669.657104 1632.937378,1669.617432 
	C1646.040527,1669.611694 1646.249390,1669.382202 1646.260254,1656.101318 
	C1646.302368,1604.501343 1646.273682,1552.901367 1646.308105,1501.301392 
	C1646.311401,1496.312988 1646.567871,1491.324951 1648.349121,1486.238647 
	C1654.952759,1485.423950 1661.591797,1484.826782 1668.153809,1483.757080 
	C1698.361084,1478.832397 1728.747314,1474.738770 1758.685059,1468.501709 
	C1789.953247,1461.987183 1820.782227,1453.364136 1852.730347,1446.731689 
	C1861.327515,1462.863647 1869.889526,1479.014648 1878.528931,1495.123901 
	C1896.598389,1528.816162 1914.669189,1562.507690 1932.817017,1596.157593 
	C1943.233765,1615.472534 1953.802734,1634.705200 1964.658936,1655.316650 
	C1965.355469,1656.828491 1966.141113,1658.306396 1966.733643,1659.857910 
	C1969.602173,1667.369873 1974.828247,1670.875244 1982.979736,1669.717163 
	C1984.611450,1669.485352 1986.305176,1669.692993 1987.970337,1669.692993 
	C2088.546387,1669.690063 2189.122314,1669.686768 2289.698242,1669.680542 
	C2292.362305,1669.680298 2295.050781,1669.857178 2297.683105,1669.557983 
	C2299.805420,1669.316650 2301.860107,1668.480103 2305.023193,1667.611572 
	C2302.150879,1662.410645 2299.884277,1658.036987 2297.376709,1653.806152 
	C2264.289795,1597.978638 2231.209229,1542.147461 2198.031738,1486.373901 
	C2188.338135,1470.078369 2178.343994,1453.961792 2168.020996,1436.425903 
	C2166.413818,1433.518433 2164.873047,1430.571899 2163.189453,1427.709229 
	C2144.147217,1395.332031 2125.083252,1362.967651 2107.497559,1329.892212 
	C2110.507812,1327.807983 2113.489258,1325.680786 2116.532715,1323.646118 
	C2167.993652,1289.243042 2214.705566,1249.334961 2255.108643,1202.379517 
	C2287.873291,1164.301147 2314.971191,1122.447021 2334.706299,1076.117188 
	C2351.350098,1037.044678 2363.209473,996.666992 2366.169922,952.328491 
	C2366.593018,950.037964 2367.256104,947.762695 2367.402588,945.454590 
	C2369.457520,913.126892 2368.408691,880.946472 2362.963623,848.949219 
	C2356.269043,809.609375 2344.134521,771.977234 2326.703125,736.165222 
	C2319.596680,721.564636 2310.706543,707.832336 2302.143311,692.376953 
z"/>
<path fill="#2066B9" opacity="1.000000" stroke="none" 
	d="
M1646.706787,1486.336670 
	C1646.567871,1491.324951 1646.311401,1496.312988 1646.308105,1501.301392 
	C1646.273682,1552.901367 1646.302368,1604.501343 1646.260254,1656.101318 
	C1646.249390,1669.382202 1646.040527,1669.611694 1632.937378,1669.617432 
	C1543.053589,1669.657104 1453.169800,1669.649902 1363.286011,1669.649780 
	C1361.289795,1669.649780 1359.291382,1669.598511 1357.297974,1669.493652 
	C1352.905396,1669.262573 1350.631470,1666.877441 1350.484619,1662.518066 
	C1350.372559,1659.192261 1350.335571,1655.862549 1350.333740,1652.534546 
	C1350.303223,1597.605591 1350.283447,1542.676758 1350.534424,1486.045654 
	C1351.026733,1482.042236 1351.434570,1479.741089 1351.436890,1477.439575 
	C1351.489746,1426.062012 1351.525146,1374.684326 1351.449829,1323.306885 
	C1351.445190,1320.072876 1350.510742,1316.840210 1350.083740,1312.698975 
	C1350.207153,1297.810303 1350.225830,1283.829590 1350.311279,1269.849121 
	C1350.449585,1247.220093 1350.631714,1224.591309 1351.475830,1201.864990 
	C1356.586304,1199.027466 1361.750122,1197.016602 1365.321777,1193.423218 
	C1382.678101,1175.961060 1399.492798,1157.962158 1416.712524,1140.362183 
	C1454.190552,1102.057007 1491.768799,1063.849731 1529.368408,1025.663696 
	C1542.217163,1012.614746 1555.367065,999.861572 1568.177124,986.775330 
	C1590.758423,963.707092 1613.070435,940.374268 1635.786011,917.440125 
	C1639.618286,913.570984 1644.909912,911.147400 1649.589600,908.979126 
	C1649.567383,932.754456 1649.482666,955.606445 1649.379395,978.592957 
	C1649.360718,978.727417 1649.395386,979.538696 1649.474854,980.491333 
	C1649.501099,988.448792 1649.447876,995.453491 1649.376465,1002.592896 
	C1649.358276,1002.727539 1649.395020,1003.539551 1649.468994,1004.503113 
	C1649.589355,1022.769226 1649.619263,1040.071899 1649.687378,1057.374268 
	C1649.743286,1071.592163 1649.763428,1071.649658 1664.197144,1071.658569 
	C1716.771851,1071.690918 1769.346924,1071.758301 1821.921143,1071.594116 
	C1828.858154,1071.572388 1835.901001,1070.839478 1842.706787,1069.488647 
	C1867.697754,1064.528320 1888.682739,1052.943359 1900.285522,1029.317139 
	C1912.982788,1003.462097 1912.832397,976.642212 1902.229248,949.991028 
	C1897.293213,937.584045 1888.542603,928.247620 1877.491699,920.726868 
	C1865.819824,912.783691 1852.566528,910.020386 1839.092529,907.493408 
	C1839.057495,907.464783 1838.796997,907.515076 1837.810547,907.553772 
	C1789.056641,907.178162 1741.289795,906.698914 1693.521851,906.390015 
	C1679.592896,906.299927 1665.660767,906.695740 1651.422852,906.694275 
	C1651.115601,906.519653 1650.480835,906.208435 1650.378784,905.669800 
	C1651.662109,902.661499 1652.607666,899.764221 1654.515259,897.802185 
	C1660.307373,891.844360 1666.666382,886.437439 1672.452393,880.474121 
	C1686.578613,865.914795 1700.344971,851.004700 1714.544800,836.518738 
	C1756.235352,793.988464 1798.066406,751.596008 1839.841919,709.148987 
	C1840.542358,708.437439 1841.454346,707.832825 1841.895752,706.984802 
	C1843.996582,702.948059 1845.968384,698.844177 1848.916504,694.636841 
	C1883.800171,694.875977 1917.797729,694.280884 1951.695557,695.846375 
	C1996.483276,697.914795 2039.053589,709.924500 2079.235840,729.742554 
	C2128.240479,753.911743 2166.525635,789.168030 2189.832031,839.370544 
	C2200.565674,862.490295 2208.031250,886.544678 2209.460449,912.349365 
	C2204.942627,915.681946 2200.672607,918.383423 2197.229736,921.895569 
	C2177.191162,942.335999 2157.432373,963.050293 2137.418457,983.515076 
	C2101.571045,1020.170227 2065.589600,1056.694336 2029.701416,1093.309814 
	C2000.340454,1123.265747 1971.097046,1153.337036 1941.689209,1183.246826 
	C1895.703491,1230.017334 1849.669312,1276.740234 1803.503784,1323.332764 
	C1799.351929,1327.522949 1794.091064,1330.614258 1788.826660,1333.830200 
	C1784.166138,1328.260986 1780.198364,1322.926147 1775.850830,1317.920898 
	C1759.319092,1298.888062 1740.614258,1284.428955 1713.150391,1288.690186 
	C1710.231445,1289.142944 1707.182983,1288.763672 1704.194702,1288.766846 
	C1688.256714,1288.783691 1672.316650,1288.654297 1656.381470,1288.873779 
	C1647.863525,1288.991089 1646.404053,1290.455322 1646.378052,1298.825928 
	C1646.321289,1317.087524 1646.560547,1335.349854 1646.525635,1354.562988 
	C1646.307373,1388.808716 1646.197021,1422.103516 1646.204834,1455.398193 
	C1646.207153,1465.711060 1646.530396,1476.023804 1646.706787,1486.336670 
z"/>
<path fill="#B5B6BA" opacity="1.000000" stroke="none" 
	d="
M709.633423,1144.156250 
	C703.039917,1133.458008 695.907104,1123.050903 689.946594,1112.010864 
	C664.650574,1065.156738 647.654968,1015.547119 641.537964,962.451172 
	C641.198364,959.503235 640.825500,956.559021 641.358032,952.733398 
	C647.132019,949.922424 652.484070,948.716980 656.813782,945.925598 
	C670.534302,937.080017 683.803650,927.538635 697.370728,918.450195 
	C781.555054,862.055786 865.783386,805.726929 949.976440,749.345459 
	C1010.905029,708.543640 1071.792969,667.681152 1132.714844,626.869446 
	C1208.037109,576.411011 1283.344238,525.929810 1358.717529,475.547546 
	C1419.129150,435.166107 1479.630127,394.918427 1540.089355,354.608246 
	C1542.862549,352.759247 1545.586914,350.835815 1548.384155,349.024353 
	C1552.858276,346.127045 1555.605591,342.198242 1555.965698,336.773254 
	C1569.563232,337.317993 1583.205566,337.347321 1596.748291,338.523010 
	C1619.575439,340.504700 1642.368774,342.968414 1665.124756,345.664246 
	C1724.025879,352.642029 1781.965698,364.483429 1839.418213,381.847107 
	C1838.252808,390.292297 1832.383545,393.719208 1826.845703,397.426880 
	C1749.097656,449.479828 1671.325073,501.496368 1593.658081,553.669922 
	C1589.951294,556.159973 1587.169312,560.026428 1583.083740,563.534851 
	C1568.908569,564.657410 1555.606323,565.497070 1541.893921,566.300842 
	C1540.924316,566.293091 1540.405273,566.453186 1539.037842,566.946289 
	C1527.898682,568.180237 1517.622803,569.005554 1507.402954,570.281616 
	C1460.862915,576.092468 1414.900024,584.569824 1369.563599,596.980591 
	C1326.473267,608.776428 1284.414673,622.960754 1243.644165,641.279968 
	C1204.668701,658.792542 1167.614014,679.419922 1132.835938,704.275513 
	C1087.430054,736.726746 1047.945801,774.792847 1018.889404,822.856689 
	C994.160461,863.762329 979.214783,907.632751 979.586609,955.996765 
	C979.627502,961.315674 979.344360,966.637024 978.498901,972.038940 
	C973.519043,973.870056 968.989441,975.169800 965.044495,977.471680 
	C958.731445,981.155212 952.802795,985.498291 946.717529,989.571350 
	C872.589111,1039.187134 798.492981,1088.851318 724.253235,1138.299927 
	C719.976807,1141.148193 714.533569,1142.244629 709.633423,1144.156250 
z"/>
<path fill="#1B61B1" opacity="1.000000" stroke="none" 
	d="
M1789.345215,1334.215820 
	C1794.091064,1330.614258 1799.351929,1327.522949 1803.503784,1323.332764 
	C1849.669312,1276.740234 1895.703491,1230.017334 1941.689209,1183.246826 
	C1971.097046,1153.337036 2000.340454,1123.265747 2029.701416,1093.309814 
	C2065.589600,1056.694336 2101.571045,1020.170227 2137.418457,983.515076 
	C2157.432373,963.050293 2177.191162,942.335999 2197.229736,921.895569 
	C2200.672607,918.383423 2204.942627,915.681946 2209.807373,913.067383 
	C2214.409668,934.411743 2213.985596,955.464050 2213.402100,976.639526 
	C2213.386963,976.756775 2213.423584,977.460388 2213.402832,978.308594 
	C2213.025635,982.463623 2212.608887,985.765320 2212.322510,989.078247 
	C2209.631104,1020.198486 2202.596680,1050.269165 2189.670166,1078.750366 
	C2166.382568,1130.060059 2128.260254,1167.566895 2079.376221,1194.325439 
	C2046.467651,1212.339478 2011.241333,1224.337646 1974.153198,1230.595459 
	C1970.759644,1231.167969 1967.411255,1232.008057 1964.041748,1232.723999 
	C1995.972656,1245.751953 2028.483521,1255.585205 2057.749512,1274.492676 
	C2076.670410,1287.875610 2091.294922,1304.070068 2101.354004,1324.312134 
	C2102.497559,1326.613525 2104.448486,1328.513672 2106.025146,1330.599854 
	C2125.083252,1362.967651 2144.147217,1395.332031 2163.189453,1427.709229 
	C2164.873047,1430.571899 2166.413818,1433.518433 2167.724121,1437.529541 
	C2165.966797,1441.491699 2163.471680,1444.277710 2163.264648,1447.224365 
	C2162.852295,1453.098755 2159.893555,1457.066406 2156.075195,1460.948486 
	C2119.474854,1498.157349 2082.933838,1535.424438 2046.344971,1572.644653 
	C2021.173584,1598.250610 1995.973755,1623.828857 1970.713257,1649.346680 
	C1968.884277,1651.194214 1966.453979,1652.446167 1964.303223,1653.975098 
	C1953.802734,1634.705200 1943.233765,1615.472534 1932.817017,1596.157593 
	C1914.669189,1562.507690 1896.598389,1528.816162 1878.528931,1495.123901 
	C1869.889526,1479.014648 1861.327515,1462.863647 1852.191040,1445.504517 
	C1838.726929,1419.756348 1826.090698,1395.076416 1812.732300,1370.793945 
	C1807.521118,1361.321045 1800.684692,1352.742188 1794.307129,1343.135254 
	C1792.465576,1339.748047 1790.905396,1336.982056 1789.345215,1334.215820 
z"/>
<path fill="#BBBDC0" opacity="1.000000" stroke="none" 
	d="
M1555.122559,336.634827 
	C1555.605591,342.198242 1552.858276,346.127045 1548.384155,349.024353 
	C1545.586914,350.835815 1542.862549,352.759247 1540.089355,354.608246 
	C1479.630127,394.918427 1419.129150,435.166107 1358.717529,475.547546 
	C1283.344238,525.929810 1208.037109,576.411011 1132.714844,626.869446 
	C1071.792969,667.681152 1010.905029,708.543640 949.976440,749.345459 
	C865.783386,805.726929 781.555054,862.055786 697.370728,918.450195 
	C683.803650,927.538635 670.534302,937.080017 656.813782,945.925598 
	C652.484070,948.716980 647.132019,949.922424 641.516296,951.908264 
	C638.329285,931.506897 638.107239,911.096558 639.389221,890.464111 
	C641.022949,864.170410 645.560486,838.513306 651.771423,813.041504 
	C652.241211,811.114807 652.974670,809.252380 654.631836,806.531677 
	C661.896118,802.615417 668.534058,800.158081 674.265930,796.340515 
	C722.229492,764.395813 769.981506,732.133728 817.882446,700.094604 
	C944.699768,615.271545 1071.576782,530.537537 1198.393188,445.713104 
	C1239.648193,418.118652 1280.792114,390.357941 1321.976685,362.658020 
	C1324.462646,360.986084 1327.325439,359.568542 1329.182373,357.340485 
	C1331.849487,354.140167 1333.752808,350.303223 1335.982178,346.738037 
	C1355.031982,344.534576 1374.052979,342.034668 1393.137207,340.186279 
	C1440.032715,335.644135 1487.070312,335.123871 1535.438965,336.364197 
	C1539.281738,339.318909 1541.693970,338.789581 1544.032349,336.567078 
	C1547.447998,336.543518 1550.863770,336.519958 1555.122559,336.634827 
z"/>
<path fill="#BEC1C4" opacity="1.000000" stroke="none" 
	d="
M1335.168823,346.634583 
	C1333.752808,350.303223 1331.849487,354.140167 1329.182373,357.340485 
	C1327.325439,359.568542 1324.462646,360.986084 1321.976685,362.658020 
	C1280.792114,390.357941 1239.648193,418.118652 1198.393188,445.713104 
	C1071.576782,530.537537 944.699768,615.271545 817.882446,700.094604 
	C769.981506,732.133728 722.229492,764.395813 674.265930,796.340515 
	C668.534058,800.158081 661.896118,802.615417 654.967285,805.844482 
	C661.284912,777.002930 673.262756,749.942078 686.708984,723.507507 
	C701.035095,695.343323 718.302795,669.043762 738.047119,644.355225 
	C774.232178,599.109070 816.099121,559.833130 862.722290,525.567688 
	C946.238525,464.187958 1038.606323,420.649200 1137.242065,389.863922 
	C1154.071533,384.611298 1170.969482,379.415985 1188.113525,375.371155 
	C1215.174683,368.986572 1242.409302,363.286987 1269.687378,357.888397 
	C1291.151978,353.640320 1312.792847,350.283691 1335.168823,346.634583 
z"/>
<path fill="#ADAEB3" opacity="1.000000" stroke="none" 
	d="
M709.809021,1144.835449 
	C714.533569,1142.244629 719.976807,1141.148193 724.253235,1138.299927 
	C798.492981,1088.851318 872.589111,1039.187134 946.717529,989.571350 
	C952.802795,985.498291 958.731445,981.155212 965.044495,977.471680 
	C968.989441,975.169800 973.519043,973.870056 978.675293,972.917603 
	C981.171997,998.331482 986.373901,1022.410339 994.673706,1045.396729 
	C1004.427368,1072.409546 1018.607544,1097.510132 1036.028320,1120.480591 
	C1043.772705,1130.692017 1052.719360,1139.991699 1060.471924,1150.070679 
	C1057.566772,1151.840210 1055.269775,1153.184204 1053.059082,1154.657349 
	C996.372070,1192.431885 939.668884,1230.182373 883.034790,1268.036133 
	C871.162659,1275.971436 859.550232,1284.295288 847.818054,1292.439941 
	C829.223877,1279.520874 812.663452,1264.204468 796.257874,1248.704834 
	C766.620605,1220.704102 740.155273,1189.967285 716.843140,1156.522095 
	C714.374329,1152.980225 712.262207,1149.189697 709.809021,1144.835449 
z"/>
<path fill="#A5A6AB" opacity="1.000000" stroke="none" 
	d="
M848.240967,1292.943115 
	C859.550232,1284.295288 871.162659,1275.971436 883.034790,1268.036133 
	C939.668884,1230.182373 996.372070,1192.431885 1053.059082,1154.657349 
	C1055.269775,1153.184204 1057.566772,1151.840210 1060.946167,1150.472900 
	C1063.067017,1151.386597 1064.145996,1152.187622 1065.051758,1153.151245 
	C1093.225830,1183.131470 1125.060669,1208.719849 1160.110352,1230.064697 
	C1185.587891,1245.580444 1211.982788,1259.589966 1237.727295,1274.901123 
	C1234.435059,1278.935547 1231.853760,1282.981323 1228.245483,1285.624756 
	C1217.246094,1293.682007 1205.932495,1301.320801 1194.595093,1308.903809 
	C1156.149170,1334.618530 1117.702637,1360.333496 1079.115723,1385.835571 
	C1068.309814,1392.977295 1057.019165,1399.385742 1045.950806,1406.130493 
	C1026.569336,1397.510498 1006.927551,1389.426392 987.859314,1380.161865 
	C945.070312,1359.372192 904.668884,1334.495483 865.947144,1306.892700 
	C860.008606,1302.659424 854.416260,1297.940552 848.240967,1292.943115 
z"/>
<path fill="#ADAEB3" opacity="1.000000" stroke="none" 
	d="
M1583.956665,563.251953 
	C1587.169312,560.026428 1589.951294,556.159973 1593.658081,553.669922 
	C1671.325073,501.496368 1749.097656,449.479828 1826.845703,397.426880 
	C1832.383545,393.719208 1838.252808,390.292297 1840.000244,382.287842 
	C1852.955200,385.140839 1865.977905,388.006470 1878.452271,392.421844 
	C1906.937622,402.504456 1935.524780,412.463287 1963.366699,424.149170 
	C1986.989258,434.064026 2009.625366,446.329376 2033.176025,458.541138 
	C2031.225952,468.384705 2023.871704,472.692261 2016.987915,477.324188 
	C1970.545288,508.574158 1924.023438,539.706543 1877.644287,571.050171 
	C1873.335205,573.962463 1869.841553,578.081299 1865.154175,581.639954 
	C1839.728882,578.054443 1815.200073,573.700989 1790.487183,571.086853 
	C1762.474487,568.123718 1734.308350,566.540894 1706.185669,564.719116 
	C1693.954102,563.926758 1681.665039,563.985657 1669.400391,563.745544 
	C1650.181030,563.369141 1630.961304,562.963013 1611.739624,562.778931 
	C1602.481079,562.690247 1593.217773,563.079285 1583.956665,563.251953 
z"/>
<path fill="#185EAC" opacity="1.000000" stroke="none" 
	d="
M1964.481201,1654.645874 
	C1966.453979,1652.446167 1968.884277,1651.194214 1970.713257,1649.346680 
	C1995.973755,1623.828857 2021.173584,1598.250610 2046.344971,1572.644653 
	C2082.933838,1535.424438 2119.474854,1498.157349 2156.075195,1460.948486 
	C2159.893555,1457.066406 2162.852295,1453.098755 2163.264648,1447.224365 
	C2163.471680,1444.277710 2165.966797,1441.491699 2167.957031,1438.198120 
	C2178.343994,1453.961792 2188.338135,1470.078369 2198.031738,1486.373901 
	C2231.209229,1542.147461 2264.289795,1597.978638 2297.376709,1653.806152 
	C2299.884277,1658.036987 2302.150879,1662.410645 2305.023193,1667.611572 
	C2301.860107,1668.480103 2299.805420,1669.316650 2297.683105,1669.557983 
	C2295.050781,1669.857178 2292.362305,1669.680298 2289.698242,1669.680542 
	C2189.122314,1669.686768 2088.546387,1669.690063 1987.970337,1669.692993 
	C1986.305176,1669.692993 1984.611450,1669.485352 1982.979736,1669.717163 
	C1974.828247,1670.875244 1969.602173,1667.369873 1966.733643,1659.857910 
	C1966.141113,1658.306396 1965.355469,1656.828491 1964.481201,1654.645874 
z"/>
<path fill="#9E9FA4" opacity="1.000000" stroke="none" 
	d="
M1046.495728,1406.579590 
	C1057.019165,1399.385742 1068.309814,1392.977295 1079.115723,1385.835571 
	C1117.702637,1360.333496 1156.149170,1334.618530 1194.595093,1308.903809 
	C1205.932495,1301.320801 1217.246094,1293.682007 1228.245483,1285.624756 
	C1231.853760,1282.981323 1234.435059,1278.935547 1238.481689,1274.814209 
	C1242.902222,1275.276245 1246.424072,1276.231201 1249.736694,1277.668213 
	C1282.380981,1291.830688 1315.663086,1304.198608 1350.008911,1313.606934 
	C1350.510742,1316.840210 1351.445190,1320.072876 1351.449829,1323.306885 
	C1351.525146,1374.684326 1351.489746,1426.062012 1351.436890,1477.439575 
	C1351.434570,1479.741089 1351.026733,1482.042236 1350.498779,1485.099854 
	C1338.372803,1484.011230 1326.577637,1482.011353 1314.735107,1480.348511 
	C1266.904541,1473.632690 1219.886841,1463.164551 1173.264771,1450.630493 
	C1133.693970,1439.992188 1095.096069,1426.604126 1057.076904,1411.438477 
	C1053.684937,1410.085449 1050.383911,1408.504028 1046.495728,1406.579590 
z"/>
<path fill="#919197" opacity="1.000000" stroke="none" 
	d="
M2106.761230,1330.246094 
	C2104.448486,1328.513672 2102.497559,1326.613525 2101.354004,1324.312134 
	C2091.294922,1304.070068 2076.670410,1287.875610 2058.417969,1274.178101 
	C2103.960205,1250.822510 2145.196045,1222.824463 2179.879395,1185.562378 
	C2210.225342,1152.960449 2233.491211,1116.108887 2247.227295,1073.754517 
	C2253.560547,1054.225342 2257.464111,1033.908325 2263.125000,1014.090271 
	C2269.989502,1016.095764 2274.703125,1012.867981 2279.467773,1009.687378 
	C2303.573975,993.595337 2327.654297,977.463623 2351.854004,961.513306 
	C2356.265381,958.605652 2361.189209,956.475464 2365.876465,953.986389 
	C2363.209473,996.666992 2351.350098,1037.044678 2334.706299,1076.117188 
	C2314.971191,1122.447021 2287.873291,1164.301147 2255.108643,1202.379517 
	C2214.705566,1249.334961 2167.993652,1289.243042 2116.532715,1323.646118 
	C2113.489258,1325.680786 2110.507812,1327.807983 2106.761230,1330.246094 
z"/>
<path fill="#A5A6AB" opacity="1.000000" stroke="none" 
	d="
M1865.969360,581.640015 
	C1869.841553,578.081299 1873.335205,573.962463 1877.644287,571.050171 
	C1924.023438,539.706543 1970.545288,508.574158 2016.987915,477.324188 
	C2023.871704,472.692261 2031.225952,468.384705 2033.816528,458.849304 
	C2049.719482,466.580627 2065.772217,474.460083 2081.136963,483.507538 
	C2115.765869,503.898376 2148.571289,526.953430 2179.204346,554.163696 
	C2174.721924,559.134705 2170.520020,563.443970 2165.655273,566.789551 
	C2143.214355,582.222900 2120.653809,597.485474 2098.005371,612.613403 
	C2083.924561,622.018677 2069.610107,631.074341 2054.697754,640.155640 
	C2050.623535,638.623840 2047.186157,637.362000 2043.890259,635.801453 
	C2009.797974,619.659790 1974.308472,607.392273 1937.777710,598.226990 
	C1913.954102,592.249878 1889.912964,587.138977 1865.969360,581.640015 
z"/>
<path fill="#99999F" opacity="1.000000" stroke="none" 
	d="
M2366.023193,953.157471 
	C2361.189209,956.475464 2356.265381,958.605652 2351.854004,961.513306 
	C2327.654297,977.463623 2303.573975,993.595337 2279.467773,1009.687378 
	C2274.703125,1012.867981 2269.989502,1016.095764 2263.131836,1013.258911 
	C2267.193115,975.480347 2267.575195,938.655701 2261.954834,901.940674 
	C2256.222412,864.493652 2245.486084,828.582947 2226.772705,795.397583 
	C2221.055908,785.259644 2214.793213,775.429626 2209.593750,765.208618 
	C2215.733887,762.329834 2221.387451,760.202393 2226.331055,756.983826 
	C2246.070557,744.132263 2265.361816,730.580505 2285.288818,718.033875 
	C2294.727539,712.090881 2302.412109,705.800049 2302.627930,693.705078 
	C2310.706543,707.832336 2319.596680,721.564636 2326.703125,736.165222 
	C2344.134521,771.977234 2356.269043,809.609375 2362.963623,848.949219 
	C2368.408691,880.946472 2369.457520,913.126892 2367.402588,945.454590 
	C2367.256104,947.762695 2366.593018,950.037964 2366.023193,953.157471 
z"/>
<path fill="#A2A3A8" opacity="1.000000" stroke="none" 
	d="
M2302.385742,693.041016 
	C2302.412109,705.800049 2294.727539,712.090881 2285.288818,718.033875 
	C2265.361816,730.580505 2246.070557,744.132263 2226.331055,756.983826 
	C2221.387451,760.202393 2215.733887,762.329834 2209.493408,765.103088 
	C2208.580322,765.247498 2208.661865,764.968262 2208.627441,764.298828 
	C2207.005127,761.779419 2205.417236,759.929443 2203.325684,757.649292 
	C2194.604248,747.696472 2186.623779,737.956055 2178.124512,728.691895 
	C2152.578613,700.847534 2122.629395,678.554749 2089.986084,659.760620 
	C2078.520752,653.159607 2066.932617,646.771973 2055.400391,640.286865 
	C2069.610107,631.074341 2083.924561,622.018677 2098.005371,612.613403 
	C2120.653809,597.485474 2143.214355,582.222900 2165.655273,566.789551 
	C2170.520020,563.443970 2174.721924,559.134705 2179.580566,554.719116 
	C2194.312256,566.970398 2209.539307,578.955200 2222.861328,592.776489 
	C2240.132080,610.694763 2256.482666,629.595520 2272.088867,648.990845 
	C2283.089600,662.662292 2292.192871,677.860413 2302.385742,693.041016 
z"/>
<path fill="#93939A" opacity="1.000000" stroke="none" 
	d="
M1794.588501,1343.756226 
	C1800.684692,1352.742188 1807.521118,1361.321045 1812.732300,1370.793945 
	C1826.090698,1395.076416 1838.726929,1419.756348 1851.727539,1444.969971 
	C1820.782227,1453.364136 1789.953247,1461.987183 1758.685059,1468.501709 
	C1728.747314,1474.738770 1698.361084,1478.832397 1668.153809,1483.757080 
	C1661.591797,1484.826782 1654.952759,1485.423950 1647.527954,1486.287598 
	C1646.530396,1476.023804 1646.207153,1465.711060 1646.204834,1455.398193 
	C1646.197021,1422.103516 1646.307373,1388.808716 1647.401733,1354.566406 
	C1658.060181,1353.172119 1667.691162,1352.762695 1677.317871,1352.271362 
	C1707.883545,1350.711670 1738.458252,1349.296875 1769.005371,1347.430176 
	C1777.575806,1346.906250 1786.063110,1345.018433 1794.588501,1343.756226 
z"/>
<path fill="#B5B6BA" opacity="1.000000" stroke="none" 
	d="
M1543.259766,336.300171 
	C1541.693970,338.789581 1539.281738,339.318909 1536.366943,336.503723 
	C1538.158203,336.092743 1540.322754,336.062988 1543.259766,336.300171 
z"/>
<path fill="#47704C" opacity="1.000000" stroke="none" 
	d="
M2054.697754,640.155579 
	C2066.932617,646.771973 2078.520752,653.159607 2089.986084,659.760620 
	C2122.629395,678.554749 2152.578613,700.847534 2178.124512,728.691895 
	C2186.623779,737.956055 2194.604248,747.696472 2203.516846,758.227295 
	C2205.695312,761.146484 2207.178467,763.057373 2208.661865,764.968262 
	C2208.661865,764.968262 2208.580322,765.247498 2208.680664,765.353027 
	C2214.793213,775.429626 2221.055908,785.259644 2226.772705,795.397583 
	C2245.486084,828.582947 2256.222412,864.493652 2261.954834,901.940674 
	C2267.575195,938.655701 2267.193115,975.480347 2262.476074,1013.117188 
	C2257.464111,1033.908325 2253.560547,1054.225342 2247.227295,1073.754517 
	C2233.491211,1116.108887 2210.225342,1152.960449 2179.879395,1185.562378 
	C2145.196045,1222.824463 2103.960205,1250.822510 2057.989746,1273.621826 
	C2028.483521,1255.585205 1995.972656,1245.751953 1964.041748,1232.723999 
	C1967.411255,1232.008057 1970.759644,1231.167969 1974.153198,1230.595459 
	C2011.241333,1224.337646 2046.467651,1212.339478 2079.376221,1194.325439 
	C2128.260254,1167.566895 2166.382568,1130.060059 2189.670166,1078.750366 
	C2202.596680,1050.269165 2209.631104,1020.198486 2212.322510,989.078247 
	C2212.608887,985.765320 2213.025635,982.463623 2213.450684,978.076782 
	C2213.519287,976.996826 2213.417236,976.522339 2213.417236,976.522339 
	C2213.985596,955.464050 2214.409668,934.411743 2210.437012,912.810791 
	C2208.031250,886.544678 2200.565674,862.490295 2189.832031,839.370544 
	C2166.525635,789.168030 2128.240479,753.911743 2079.235840,729.742554 
	C2039.053589,709.924500 1996.483276,697.914795 1951.695557,695.846375 
	C1917.797729,694.280884 1883.800171,694.875977 1847.985840,694.522217 
	C1844.126465,694.475708 1842.128052,694.364929 1840.129761,694.364746 
	C1680.830566,694.352539 1521.531250,694.342468 1362.232056,694.385193 
	C1358.597290,694.386169 1354.962646,694.990234 1351.313965,695.259521 
	C1351.299805,695.205994 1351.299683,695.332336 1351.029663,696.278931 
	C1350.608765,702.216675 1350.326416,707.207825 1350.326294,712.199036 
	C1350.322510,870.795044 1350.342285,1029.391113 1350.383423,1187.987061 
	C1350.384644,1192.645508 1350.651978,1197.303955 1350.795288,1201.962402 
	C1350.631714,1224.591309 1350.449585,1247.220093 1350.311279,1269.849121 
	C1350.225830,1283.829590 1350.207153,1297.810303 1350.083740,1312.698975 
	C1315.663086,1304.198608 1282.380981,1291.830688 1249.736694,1277.668213 
	C1246.424072,1276.231201 1242.902222,1275.276245 1238.723145,1274.184204 
	C1211.982788,1259.589966 1185.587891,1245.580444 1160.110352,1230.064697 
	C1125.060669,1208.719849 1093.225830,1183.131470 1065.051758,1153.151245 
	C1064.145996,1152.187622 1063.067017,1151.386597 1061.594482,1150.107422 
	C1052.719360,1139.991699 1043.772705,1130.692017 1036.028320,1120.480591 
	C1018.607544,1097.510132 1004.427368,1072.409546 994.673706,1045.396729 
	C986.373901,1022.410339 981.171997,998.331482 979.387878,972.835938 
	C979.344360,966.637024 979.627502,961.315674 979.586609,955.996765 
	C979.214783,907.632751 994.160461,863.762329 1018.889404,822.856689 
	C1047.945801,774.792847 1087.430054,736.726746 1132.835938,704.275513 
	C1167.614014,679.419922 1204.668701,658.792542 1243.644165,641.279968 
	C1284.414673,622.960754 1326.473267,608.776428 1369.563599,596.980591 
	C1414.900024,584.569824 1460.862915,576.092468 1507.402954,570.281616 
	C1517.622803,569.005554 1527.898682,568.180237 1539.449341,567.084717 
	C1541.367554,567.019714 1541.885620,566.791321 1542.303955,566.336792 
	C1555.606323,565.497070 1568.908569,564.657410 1583.083740,563.534912 
	C1593.217773,563.079285 1602.481079,562.690247 1611.739624,562.778931 
	C1630.961304,562.963013 1650.181030,563.369141 1669.400391,563.745544 
	C1681.665039,563.985657 1693.954102,563.926758 1706.185669,564.719116 
	C1734.308350,566.540894 1762.474487,568.123718 1790.487183,571.086853 
	C1815.200073,573.700989 1839.728882,578.054443 1865.154175,581.640015 
	C1889.912964,587.138977 1913.954102,592.249878 1937.777710,598.226990 
	C1974.308472,607.392273 2009.797974,619.659790 2043.890259,635.801453 
	C2047.186157,637.362000 2050.623535,638.623840 2054.697754,640.155579 
z"/>
<path fill="#256BC0" opacity="1.000000" stroke="none" 
	d="
M1351.328003,695.312988 
	C1354.962646,694.990234 1358.597290,694.386169 1362.232056,694.385193 
	C1521.531250,694.342468 1680.830566,694.352539 1840.129761,694.364746 
	C1842.128052,694.364929 1844.126465,694.475708 1847.055420,694.649536 
	C1845.968384,698.844177 1843.996582,702.948059 1841.895752,706.984802 
	C1841.454346,707.832825 1840.542358,708.437439 1839.841919,709.148987 
	C1798.066406,751.596008 1756.235352,793.988464 1714.544800,836.518738 
	C1700.344971,851.004700 1686.578613,865.914795 1672.452393,880.474121 
	C1666.666382,886.437439 1660.307373,891.844360 1654.515259,897.802185 
	C1652.607666,899.764221 1651.662109,902.661499 1650.368652,906.103149 
	C1650.460449,907.075073 1650.561279,907.936829 1650.302246,907.962402 
	C1650.043335,907.987915 1649.527344,908.055908 1649.527344,908.055908 
	C1644.909912,911.147400 1639.618286,913.570984 1635.786011,917.440125 
	C1613.070435,940.374268 1590.758423,963.707092 1568.177124,986.775330 
	C1555.367065,999.861572 1542.217163,1012.614746 1529.368408,1025.663696 
	C1491.768799,1063.849731 1454.190552,1102.057007 1416.712524,1140.362183 
	C1399.492798,1157.962158 1382.678101,1175.961060 1365.321777,1193.423218 
	C1361.750122,1197.016602 1356.586304,1199.027466 1351.475830,1201.864990 
	C1350.651978,1197.303955 1350.384644,1192.645508 1350.383423,1187.987061 
	C1350.342285,1029.391113 1350.322510,870.795044 1350.326294,712.199036 
	C1350.326416,707.207825 1350.608765,702.216675 1351.035400,696.294800 
	C1351.311157,695.364197 1351.328003,695.312927 1351.328003,695.312988 
z"/>
<path fill="#47704C" opacity="1.000000" stroke="none" 
	d="
M1649.398071,978.458496 
	C1649.482666,955.606445 1649.567383,932.754456 1649.589600,908.979126 
	C1649.527344,908.055908 1650.043335,907.987915 1650.498657,907.788452 
	C1651.215332,907.351746 1651.473999,907.111694 1651.730103,906.868896 
	C1665.660767,906.695740 1679.592896,906.299927 1693.521851,906.390015 
	C1741.289795,906.698914 1789.056641,907.178162 1837.886963,907.598755 
	C1838.949951,907.604980 1839.127441,907.521973 1839.127441,907.521973 
	C1852.566528,910.020386 1865.819824,912.783691 1877.491699,920.726868 
	C1888.542603,928.247620 1897.293213,937.584045 1902.229248,949.991028 
	C1912.832397,976.642212 1912.982788,1003.462097 1900.285522,1029.317139 
	C1888.682739,1052.943359 1867.697754,1064.528320 1842.706787,1069.488647 
	C1835.901001,1070.839478 1828.858154,1071.572388 1821.921143,1071.594116 
	C1769.346924,1071.758301 1716.771851,1071.690918 1664.197144,1071.658569 
	C1649.763428,1071.649658 1649.743286,1071.592163 1649.687378,1057.374268 
	C1649.619263,1040.071899 1649.589355,1022.769226 1649.524536,1004.234985 
	C1649.506104,1003.003357 1649.394775,1002.458252 1649.394775,1002.458252 
	C1649.447876,995.453491 1649.501099,988.448792 1649.531006,980.223755 
	C1649.507568,979.003418 1649.398071,978.458496 1649.398071,978.458496 
z"/>
<path fill="#47704C" opacity="1.000000" stroke="none" 
	d="
M1794.307129,1343.135254 
	C1786.063110,1345.018433 1777.575806,1346.906250 1769.005371,1347.430176 
	C1738.458252,1349.296875 1707.883545,1350.711670 1677.317871,1352.271362 
	C1667.691162,1352.762695 1658.060181,1353.172119 1647.554932,1353.615479 
	C1646.560547,1335.349854 1646.321289,1317.087524 1646.378052,1298.825928 
	C1646.404053,1290.455322 1647.863525,1288.991089 1656.381470,1288.873779 
	C1672.316650,1288.654297 1688.256714,1288.783691 1704.194702,1288.766846 
	C1707.182983,1288.763672 1710.231445,1289.142944 1713.150391,1288.690186 
	C1740.614258,1284.428955 1759.319092,1298.888062 1775.850830,1317.920898 
	C1780.198364,1322.926147 1784.166138,1328.260986 1788.826660,1333.830322 
	C1790.905396,1336.982056 1792.465576,1339.748047 1794.307129,1343.135254 
z"/>
<path fill="#1B61B1" opacity="1.000000" stroke="none" 
	d="
M1649.379395,978.592957 
	C1649.398071,978.458496 1649.507568,979.003418 1649.451416,979.271057 
	C1649.395386,979.538696 1649.360718,978.727417 1649.379395,978.592957 
z"/>
<path fill="#1B61B1" opacity="1.000000" stroke="none" 
	d="
M1649.376465,1002.592896 
	C1649.394775,1002.458252 1649.506104,1003.003357 1649.450562,1003.271484 
	C1649.395020,1003.539551 1649.358276,1002.727539 1649.376465,1002.592896 
z"/>
<path fill="#185EAC" opacity="1.000000" stroke="none" 
	d="
M1839.092529,907.493408 
	C1839.127441,907.521973 1838.949951,907.604980 1838.873535,907.560059 
	C1838.796997,907.515076 1839.057495,907.464783 1839.092529,907.493408 
z"/>
<path fill="#47704C" opacity="1.000000" stroke="none" 
	d="
M1651.422852,906.694275 
	C1651.473999,907.111694 1651.215332,907.351746 1650.757568,907.762939 
	C1650.561279,907.936829 1650.460449,907.075073 1650.470703,906.641724 
	C1650.480835,906.208435 1651.115601,906.519653 1651.422852,906.694275 
z"/>
<path fill="#919197" opacity="1.000000" stroke="none" 
	d="
M1541.893921,566.300842 
	C1541.885620,566.791321 1541.367554,567.019714 1540.338379,566.883606 
	C1540.405273,566.453186 1540.924316,566.293091 1541.893921,566.300842 
z"/>
<path fill="#185EAC" opacity="1.000000" stroke="none" 
	d="
M2213.402100,976.639526 
	C2213.417236,976.522339 2213.519287,976.996826 2213.471436,977.228638 
	C2213.423584,977.460388 2213.386963,976.756775 2213.402100,976.639526 
z"/>
<path fill="#99999F" opacity="1.000000" stroke="none" 
	d="
M2208.627441,764.298828 
	C2207.178467,763.057373 2205.695312,761.146484 2204.020508,758.657532 
	C2205.417236,759.929443 2207.005127,761.779419 2208.627441,764.298828 
z"/>
<path fill="#1B61B1" opacity="1.000000" stroke="none" 
	d="
M1351.313965,695.259460 
	C1351.328003,695.312927 1351.311157,695.364197 1351.305420,695.348267 
	C1351.299683,695.332336 1351.299805,695.205994 1351.313965,695.259460 
z"/>
</svg>